<svg xmlns="http://www.w3.org/2000/svg" height="40" viewBox="0 -960 960 960" width="40"><path d="M150.002-70.002v-626.92q0-25.789 18.388-44.176 18.387-18.388 44.176-18.388h414.357q25.846 0 44.41 18.388 18.564 18.387 18.564 44.176v626.92L419.744-184.925 150.002-70.002Zm50.255-76.972 219.487-94.257 219.488 94.257v-549.948q0-4.616-3.847-8.462-3.846-3.847-8.462-3.847H212.566q-4.616 0-8.462 3.847-3.847 3.846-3.847 8.462v549.948Zm559.486-28.413v-642.047q0-4.615-3.847-8.462-3.846-3.846-8.462-3.846H266.618v-50.255h480.816q25.789 0 44.176 18.388 18.388 18.387 18.388 44.175v642.047h-50.255ZM200.257-709.231h438.975-438.975Z"/></svg>