<svg xmlns="http://www.w3.org/2000/svg" height="40" viewBox="0 -960 960 960" width="40"><path d="M535.922-100.001H423.693q-11.564 0-20.256-7.552-8.692-7.551-10.692-19.115l-13.513-94.102q-19.051-6.462-40.475-18.59-21.423-12.129-37.295-25.77l-86.513 38.872q-11.102 4.743-22.397 1.077-11.295-3.667-17.449-14.692l-56.358-98.819q-6.153-10.359-3.346-21.923 2.808-11.564 12.167-18.718l77.589-57.666q-1.795-10-2.577-21.308t-.782-21.308q0-9.616.782-20.86.782-11.243 2.577-22.526l-77.589-57.666q-9.359-7.154-12.167-18.718-2.807-11.564 3.346-21.923l56.358-98.306q6.205-10.717 17.282-14.41 11.077-3.692 22.179 1.051l86.513 38.231q17.026-13.769 37.783-25.705 20.756-11.937 39.988-18.116l13.897-94.769q2-11.564 10.692-19.115 8.692-7.552 20.256-7.552h112.229q11.564 0 20.448 7.552 8.885 7.551 10.885 19.115l13.513 94.487q20.718 7.615 40.295 18.577 19.578 10.962 36.321 25.526l88.052-38.231q11.102-4.743 22.205-1.269 11.102 3.475 17.256 14.244l56.358 98.28q6.153 10.359 3.679 22.128-2.474 11.769-12.5 18.923l-79.128 57.743q2.564 11.18 3.09 22.039.526 10.859.526 20.885 0 9.641-.718 20.295-.718 10.654-3.103 22.731l78.615 57.641q9.487 6.769 12.231 18.526 2.743 11.756-3.667 22.115l-56.101 98.87q-6.411 10.769-17.68 14.346t-22.628-1.167l-86.487-38.872q-17.41 14.411-37 26.296t-39.616 18.064l-13.513 94.487q-2 11.564-10.885 19.115-8.884 7.552-20.448 7.552Zm-56.538-264.872q48.026 0 81.576-33.551 33.551-33.551 33.551-81.576 0-48.025-33.551-81.576-33.55-33.551-81.576-33.551-47.973 0-81.55 33.551-33.576 33.551-33.576 81.576 0 48.025 33.576 81.576 33.577 33.551 81.55 33.551Zm0-50.255q-26.897 0-45.884-18.987-18.987-18.988-18.987-45.885t18.987-45.885q18.987-18.987 45.884-18.987 27.154 0 46.013 18.987 18.859 18.988 18.859 45.885t-18.859 45.885q-18.859 18.987-46.013 18.987ZM480-480Zm-41.897 329.744h83.077l14.384-110.129q31.436-8 58.269-23.474 26.834-15.474 51.449-39.449l102.769 44.077 39.795-69.897-90.564-67.282q4.333-17.026 6.474-32.488 2.141-15.461 2.141-31.102 0-16.282-1.936-31.359-1.935-15.077-6.679-31.461l91.333-68.052-39.794-69.897-103.924 44.282q-20.743-22.949-49.936-40.487-29.192-17.539-59.781-22.641l-13.283-110.129h-83.589L425.077-700q-32.359 6.82-59.641 22.487-27.282 15.667-51.231 40.436l-103.026-43.692-39.794 69.897 90.435 66.692q-4.589 15.308-6.794 31.308-2.206 16-2.206 33.257 0 16.282 2.206 31.897 2.205 15.615 6.41 31.308l-90.051 67.282 39.794 69.897 102.641-43.897q23.59 24.051 51 39.59Q392.231-268 424.692-260l13.411 109.744Z"/></svg>